<svg width="223" height="223" viewBox="0 0 223 223" fill="none" xmlns="http://www.w3.org/2000/svg">
<rect width="222.061" height="222.061" rx="23.0835" fill="#2F6EFF"/>
<path fill-rule="evenodd" clip-rule="evenodd" d="M58.882 59.4913C50.9347 61.4778 43.8852 66.55 40.0142 73.0679C36.2893 79.3408 35.4844 83.878 35.4844 98.611V111.624L43.3848 103.865C52.6561 94.7605 56.8014 92.4143 63.8092 92.307C72.8658 92.1685 74.3582 93.1364 91.648 110.356C101.317 119.985 107.877 125.968 109.106 126.279C112.963 127.254 114.866 125.956 126.189 114.627L137.342 103.469L134.289 100.335C131.175 97.1407 130.474 94.8069 132.196 93.3677C132.726 92.9255 140.039 92.0221 148.449 91.3594C163.353 90.1863 163.773 90.1907 165.089 91.5312C166.395 92.8624 166.402 93.3873 165.313 107.769C163.834 127.304 162.831 128.98 156.423 122.623L153.124 119.351L140.38 132.312C129.822 143.049 127.635 145.63 127.635 147.352C127.635 150.259 135.391 157.635 141.777 160.802C146.012 162.901 147.44 163.224 153.495 163.452C161.741 163.762 167.019 162.358 173.234 158.204C179.65 153.915 184.387 146.883 185.943 139.341C186.48 136.73 186.676 126.394 186.529 108.365L186.309 81.3063L183.999 76.3951C178.136 63.9291 164.23 56.6369 151.002 59.0918C142.704 60.6317 139.94 62.5603 125.811 76.6749C116.132 86.3423 112.381 89.644 111.077 89.644C109.772 89.644 106.021 86.3423 96.3426 76.6749C82.7015 63.0482 79.6648 60.8478 72.3453 59.2832C67.5909 58.2674 63.527 58.3305 58.882 59.4913ZM50.1097 129.674C43.2538 136.538 37.647 142.655 37.6506 143.269C37.6629 145.183 41.8968 151.932 44.9716 154.937C46.5885 156.517 50.3631 159.03 53.3594 160.522C58.7034 163.182 58.9662 163.233 67.1388 163.233C75.1718 163.233 75.6505 163.144 80.4812 160.749C87.0383 157.498 94.5183 150.317 94.5183 147.272C94.5183 145.481 92.3456 142.961 80.6396 131.172C68.9804 119.431 66.4254 117.195 64.6673 117.195C62.9215 117.195 60.5126 119.26 50.1097 129.674Z" fill="white"/>
</svg>
