<svg width="1071" height="258" viewBox="0 0 1071 258" fill="none" xmlns="http://www.w3.org/2000/svg">
<path d="M420.753 96.2792C431.419 96.2792 439.88 99.5097 446.136 105.971C452.494 112.432 455.673 121.405 455.673 132.892V183.042H429.522V136.43C429.522 130.892 428.034 126.636 425.06 123.662C422.189 120.585 418.189 119.047 413.061 119.047C407.933 119.047 403.883 120.585 400.908 123.662C398.037 126.636 396.601 130.892 396.601 136.43V183.042H370.449V136.43C370.449 130.892 368.962 126.636 365.988 123.662C363.117 120.585 359.117 119.047 353.989 119.047C348.861 119.047 344.81 120.585 341.836 123.662C338.965 126.636 337.529 130.892 337.529 136.43V183.042H311.223V97.2022H337.529V107.971C340.195 104.381 343.682 101.561 347.99 99.5097C352.297 97.356 357.168 96.2792 362.604 96.2792C369.065 96.2792 374.808 97.6637 379.833 100.433C384.961 103.202 388.961 107.15 391.832 112.278C394.806 107.56 398.857 103.714 403.985 100.74C409.113 97.7663 414.702 96.2792 420.753 96.2792ZM468.84 139.968C468.84 131.148 470.481 123.405 473.763 116.739C477.148 110.073 481.711 104.945 487.454 101.356C493.198 97.7663 499.607 95.9715 506.684 95.9715C512.734 95.9715 518.016 97.2022 522.528 99.6635C527.144 102.125 530.682 105.355 533.143 109.355V97.2022H559.449V183.042H533.143V170.889C530.579 174.888 526.99 178.119 522.375 180.58C517.862 183.042 512.581 184.272 506.53 184.272C499.556 184.272 493.198 182.477 487.454 178.888C481.711 175.196 477.148 170.017 473.763 163.351C470.481 156.582 468.84 148.788 468.84 139.968ZM533.143 140.122C533.143 133.558 531.297 128.379 527.605 124.585C524.016 120.79 519.606 118.893 514.375 118.893C509.145 118.893 504.684 120.79 500.992 124.585C497.402 128.277 495.608 133.404 495.608 139.968C495.608 146.532 497.402 151.762 500.992 155.659C504.684 159.454 509.145 161.351 514.375 161.351C519.606 161.351 524.016 159.454 527.605 155.659C531.297 151.865 533.143 146.685 533.143 140.122ZM613.4 184.272C605.913 184.272 599.247 182.99 593.401 180.426C587.556 177.862 582.941 174.376 579.556 169.966C576.172 165.453 574.275 160.428 573.865 154.89H599.862C600.17 157.864 601.555 160.274 604.016 162.12C606.477 163.966 609.503 164.889 613.092 164.889C616.374 164.889 618.887 164.274 620.63 163.043C622.476 161.71 623.399 160.018 623.399 157.967C623.399 155.505 622.117 153.711 619.553 152.582C616.989 151.352 612.836 150.018 607.093 148.583C600.939 147.147 595.812 145.66 591.709 144.122C587.607 142.481 584.069 139.968 581.095 136.584C578.121 133.097 576.634 128.43 576.634 122.585C576.634 117.662 577.967 113.201 580.633 109.201C583.402 105.099 587.402 101.868 592.632 99.5097C597.965 97.1509 604.272 95.9715 611.554 95.9715C622.322 95.9715 630.783 98.638 636.936 103.971C643.192 109.304 646.782 116.38 647.705 125.2H623.399C622.989 122.226 621.656 119.867 619.399 118.124C617.246 116.38 614.374 115.508 610.785 115.508C607.708 115.508 605.349 116.124 603.708 117.354C602.067 118.483 601.247 120.072 601.247 122.123C601.247 124.585 602.529 126.431 605.093 127.661C607.759 128.892 611.862 130.123 617.4 131.353C623.758 132.994 628.937 134.635 632.937 136.276C636.936 137.814 640.423 140.378 643.397 143.968C646.474 147.455 648.064 152.172 648.166 158.12C648.166 163.146 646.731 167.658 643.859 171.658C641.09 175.555 637.039 178.632 631.706 180.888C626.476 183.144 620.374 184.272 613.4 184.272ZM659.03 139.968C659.03 131.148 660.671 123.405 663.952 116.739C667.337 110.073 671.9 104.945 677.644 101.356C683.387 97.7663 689.796 95.9715 696.873 95.9715C702.924 95.9715 708.205 97.2022 712.718 99.6635C717.333 102.125 720.871 105.355 723.332 109.355V97.2022H749.638V183.042H723.332V170.889C720.768 174.888 717.179 178.119 712.564 180.58C708.051 183.042 702.77 184.272 696.719 184.272C689.745 184.272 683.387 182.477 677.644 178.888C671.9 175.196 667.337 170.017 663.952 163.351C660.671 156.582 659.03 148.788 659.03 139.968ZM723.332 140.122C723.332 133.558 721.486 128.379 717.794 124.585C714.205 120.79 709.795 118.893 704.564 118.893C699.334 118.893 694.873 120.79 691.181 124.585C687.591 128.277 685.797 133.404 685.797 139.968C685.797 146.532 687.591 151.762 691.181 155.659C694.873 159.454 699.334 161.351 704.564 161.351C709.795 161.351 714.205 159.454 717.794 155.659C721.486 151.865 723.332 146.685 723.332 140.122ZM794.974 111.509C798.051 106.791 801.897 103.099 806.512 100.433C811.127 97.6637 816.255 96.2792 821.895 96.2792V124.123H814.665C808.101 124.123 803.179 125.559 799.897 128.43C796.615 131.199 794.974 136.122 794.974 143.199V183.042H768.669V97.2022H794.974V111.509ZM915.385 138.737C915.385 141.199 915.232 143.763 914.924 146.429H855.39C855.8 151.762 857.493 155.864 860.467 158.736C863.543 161.505 867.287 162.889 871.697 162.889C878.26 162.889 882.824 160.12 885.388 154.582H913.386C911.95 160.223 909.335 165.299 905.54 169.812C901.848 174.324 897.182 177.862 891.541 180.426C885.901 182.99 879.593 184.272 872.62 184.272C864.21 184.272 856.723 182.477 850.16 178.888C843.596 175.299 838.468 170.171 834.776 163.505C831.084 156.838 829.238 149.044 829.238 140.122C829.238 131.199 831.033 123.405 834.623 116.739C838.315 110.073 843.442 104.945 850.006 101.356C856.57 97.7663 864.107 95.9715 872.62 95.9715C880.927 95.9715 888.311 97.715 894.772 101.202C901.233 104.689 906.258 109.663 909.847 116.124C913.539 122.585 915.385 130.123 915.385 138.737ZM888.464 131.815C888.464 127.302 886.926 123.713 883.849 121.046C880.773 118.38 876.927 117.047 872.312 117.047C867.902 117.047 864.159 118.329 861.082 120.893C858.108 123.457 856.262 127.097 855.544 131.815H888.464ZM1010.18 138.737C1010.18 141.199 1010.03 143.763 1009.72 146.429H950.184C950.594 151.762 952.287 155.864 955.261 158.736C958.337 161.505 962.081 162.889 966.491 162.889C973.054 162.889 977.618 160.12 980.182 154.582H1008.18C1006.74 160.223 1004.13 165.299 1000.33 169.812C996.642 174.324 991.976 177.862 986.335 180.426C980.695 182.99 974.387 184.272 967.414 184.272C959.004 184.272 951.517 182.477 944.954 178.888C938.39 175.299 933.263 170.171 929.571 163.505C925.879 156.838 924.033 149.044 924.033 140.122C924.033 131.199 925.827 123.405 929.417 116.739C933.109 110.073 938.237 104.945 944.8 101.356C951.364 97.7663 958.902 95.9715 967.414 95.9715C975.721 95.9715 983.105 97.715 989.566 101.202C996.027 104.689 1001.05 109.663 1004.64 116.124C1008.33 122.585 1010.18 130.123 1010.18 138.737ZM983.259 131.815C983.259 127.302 981.72 123.713 978.644 121.046C975.567 118.38 971.721 117.047 967.106 117.047C962.696 117.047 958.953 118.329 955.876 120.893C952.902 123.457 951.056 127.097 950.338 131.815H983.259ZM1067.13 119.047H1052.98V183.042H1026.67V119.047H1017.13V97.2022H1026.67V94.7409C1026.67 84.1776 1029.7 76.1782 1035.75 70.7428C1041.8 65.2047 1050.67 62.4357 1062.36 62.4357C1064.31 62.4357 1065.75 62.487 1066.67 62.5896V84.8955C1061.64 84.5878 1058.11 85.3057 1056.05 87.0492C1054 88.7926 1052.98 91.9206 1052.98 96.433V97.2022H1067.13V119.047Z" fill="#0A0B1D"/>
<rect y="0.833984" width="256.39" height="256.39" rx="26.652" fill="#2F6EFF"/>
<path fill-rule="evenodd" clip-rule="evenodd" d="M67.9849 69.5222C58.8091 71.8159 50.6697 77.6722 46.2003 85.1977C41.8995 92.4403 40.9702 97.6789 40.9702 114.69V129.715L50.092 120.756C60.7965 110.244 65.5827 107.535 73.6738 107.411C84.1305 107.251 85.8537 108.369 105.816 128.25C116.98 139.368 124.554 146.276 125.973 146.635C130.426 147.76 132.624 146.262 145.697 133.181L158.574 120.298L155.049 116.68C151.454 112.992 150.645 110.297 152.633 108.636C153.244 108.125 161.688 107.082 171.398 106.317C188.606 104.962 189.091 104.967 190.611 106.515C192.119 108.052 192.127 108.658 190.869 125.264C189.162 147.818 188.003 149.753 180.605 142.413L176.796 138.636L162.082 153.6C149.892 165.997 147.367 168.977 147.367 170.965C147.367 174.322 156.321 182.838 163.695 186.494C168.584 188.918 170.233 189.291 177.225 189.554C186.745 189.912 192.839 188.292 200.015 183.495C207.422 178.544 212.893 170.424 214.688 161.716C215.309 158.702 215.535 146.768 215.365 125.951L215.111 94.7097L212.444 89.0392C205.674 74.6461 189.618 66.2265 174.345 69.061C164.765 70.839 161.574 73.0656 145.26 89.3623C134.085 100.524 129.755 104.336 128.248 104.336C126.742 104.336 122.412 100.524 111.237 89.3623C95.4867 73.629 91.9806 71.0884 83.5296 69.282C78.0402 68.1092 73.3479 68.182 67.9849 69.5222ZM57.8565 150.555C49.9408 158.48 43.4672 165.543 43.4714 166.251C43.4855 168.461 48.3739 176.253 51.924 179.723C53.791 181.548 58.1491 184.449 61.6086 186.171C67.7788 189.242 68.0821 189.302 77.5182 189.302C86.7929 189.302 87.3457 189.199 92.9232 186.433C100.494 182.68 109.13 174.389 109.13 170.873C109.13 168.806 106.622 165.896 93.1061 152.284C79.6444 138.728 76.6944 136.146 74.6646 136.146C72.6489 136.146 69.8676 138.53 57.8565 150.555Z" fill="white"/>
</svg>
